<svg width="54" height="57" viewBox="0 0 54 57" fill="none" xmlns="http://www.w3.org/2000/svg">
<path d="M49.2686 4.99243C42.6715 -1.96332 32.2173 -2.21937 22.6607 7.8569C14.3697 16.5983 16.2292 14.639 13.6167 17.3932C7.23997 24.1163 6.19266 34.1848 6.90458 40.9023L25.7246 21.0581C26.3848 20.3623 27.4543 20.3623 28.1135 21.0581C28.7727 21.7539 28.7727 22.8817 28.1135 23.5775L0.74198 52.4392C-0.247327 53.4823 -0.247327 55.1745 0.74198 56.2176C1.73129 57.2608 3.33653 57.2608 4.32584 56.2176L11.2974 48.8667C16.8135 50.6156 29.4255 50.8895 37.3305 42.7503H26.9744L42.5386 37.2797C47.811 31.7211 46.3756 33.2519 47.4229 32.0629H37.1101L50.9835 27.1867C55.7761 18.8973 54.6022 10.6167 49.2686 4.99243Z" fill="#324376"/>
</svg>
