<?xml version="1.0" encoding="UTF-8" standalone="no"?>
<!-- Created with Inkscape (http://www.inkscape.org/) -->

<svg
   width="44.694447mm"
   height="36.870186mm"
   viewBox="0 0 168.9239 139.35188"
   version="1.1"
   id="svg1"
   xmlns="http://www.w3.org/2000/svg"
   xmlns:svg="http://www.w3.org/2000/svg">
  <defs
     id="defs1" />
  <g
     id="layer1"
     transform="translate(-1736.3236,-148.81318)">
    <text
       xml:space="preserve"
       style="font-style:normal;font-variant:normal;font-weight:800;font-stretch:normal;font-size:143.306px;line-height:0;font-family:Gilroy;-inkscape-font-specification:'Gilroy Ultra-Bold';text-align:start;writing-mode:lr-tb;direction:ltr;text-anchor:start;fill:#ffe9ce;fill-opacity:1;stroke-width:2.98554;stroke-linecap:round;stroke-miterlimit:3.2;paint-order:fill markers stroke"
       x="1864.9785"
       y="286.0155"
       id="text13-5-9-0-9-8"><tspan
         id="tspan13-9-0-3-4-8"
         x="1864.9785"
         y="286.0155"
         style="font-style:normal;font-variant:normal;font-weight:bold;font-stretch:normal;font-size:143.306px;font-family:'TAN - NIMBUS';-inkscape-font-specification:'TAN - NIMBUS Bold';fill:#ffe9ce;fill-opacity:1;stroke-width:2.98554">.</tspan></text>
    <path
       style="font-size:32px;line-height:0;font-family:'TAN - NIMBUS';-inkscape-font-specification:'TAN - NIMBUS';fill:#ffe9ce;fill-opacity:1;stroke-width:11.8928;stroke-linecap:round;stroke-miterlimit:3.2;paint-order:fill markers stroke"
       d="m 1736.3236,189.72438 c 0,37.29575 40.15,49.47398 70.9761,49.47398 14.4616,0 25.6884,-2.47372 32.7289,-2.47372 5.1377,0 7.992,1.33201 7.992,5.89884 0,9.89479 -13.7005,17.50616 -26.8301,17.50616 -34.8221,0 -54.2311,-25.11756 -65.6482,-25.11756 -7.8017,0 -18.2673,27.40097 -18.2673,35.58323 0,9.7045 37.8666,17.1256 63.9356,17.1256 21.5022,0 57.0854,-10.84621 57.0854,-46.04886 0,-36.72493 -37.4861,-46.61972 -71.1665,-52.51853 -15.9839,-2.85427 -28.7329,-6.65996 -28.7329,-15.98393 0,-9.51421 8.5628,-13.12962 15.2227,-13.12962 23.7856,0 42.0529,37.48605 67.3608,37.48605 6.8502,0 17.6964,-13.12962 17.6964,-25.87869 0,-11.03652 -27.5912,-22.83414 -61.0813,-22.83414 -28.733,0 -61.2716,9.13367 -61.2716,40.91119 z"
       id="text1-9-1-3-7-0-3" />
  </g>
</svg>
