<svg width="48" height="46" viewBox="0 0 48 46" fill="none" xmlns="http://www.w3.org/2000/svg">
<path d="M22.7705 2.26172C23.2709 1.24932 24.7216 1.24318 25.2295 2.26074V2.26172L31.0879 14.1406L31.4375 14.8477L32.2168 14.9609L45.3252 16.8721H45.3262C46.4098 17.0292 46.8685 18.3336 46.1562 19.1357L46.083 19.2119V19.2129L36.5996 28.4531L36.0342 29.0039L36.168 29.7822L38.4111 42.8359C38.595 43.915 37.4957 44.7498 36.5186 44.3232L36.4248 44.2783L36.4238 44.2773L24.6982 38.1143L24 37.7471L23.3018 38.1143L11.5762 44.2773L11.5713 44.2803C10.5827 44.8044 9.39751 43.9589 9.58887 42.8359L11.832 29.7822L11.9658 29.0039L11.4004 28.4531L1.91699 19.2129V19.2119L1.84375 19.1357C1.15457 18.3596 1.56162 17.1139 2.57031 16.8916L2.67383 16.8721H2.6748L15.7832 14.9609L16.5625 14.8477L16.9121 14.1406L22.7705 2.26172Z" stroke="#F58E5F" stroke-width="3"/>
</svg>
